<svg width="19" height="22" viewBox="0 0 19 22" fill="none" xmlns="http://www.w3.org/2000/svg">
<path d="M18.3955 7.4998C18.2601 7.5988 15.8699 8.8682 15.8699 11.6908C15.8699 14.9556 18.9113 16.1106 19.0023 16.1392C18.9883 16.2096 18.5192 17.721 17.3988 19.261C16.3998 20.6162 15.3564 21.9692 13.7692 21.9692C12.1819 21.9692 11.7735 21.1002 9.94115 21.1002C8.15553 21.1002 7.52064 21.9978 6.0688 21.9978C4.61695 21.9978 3.60393 20.7438 2.43919 19.2038C1.09005 17.3954 0 14.586 0 11.9196C0 7.6428 2.95037 5.3746 5.85405 5.3746C7.39693 5.3746 8.68305 6.3294 9.65172 6.3294C10.5737 6.3294 12.0115 5.3174 13.7668 5.3174C14.4321 5.3174 16.8222 5.3746 18.3955 7.4998ZM12.9335 3.5068C13.6595 2.695 14.173 1.5686 14.173 0.4422C14.173 0.286 14.159 0.1276 14.1286 0C12.9475 0.0418 11.5424 0.7414 10.6951 1.6676C10.0299 2.3804 9.40897 3.5068 9.40897 4.6486C9.40897 4.8202 9.43931 4.9918 9.45332 5.0468C9.52801 5.06 9.64939 5.0754 9.77076 5.0754C10.8305 5.0754 12.1633 4.4066 12.9335 3.5068Z" fill="white"/>
</svg>
