<svg width="24" height="24" viewBox="0 0 24 24" fill="none" xmlns="http://www.w3.org/2000/svg">
<path fill-rule="evenodd" clip-rule="evenodd" d="M3.83325 23.6666C1.90026 23.6666 0.333252 22.0996 0.333252 20.1666V3.83325C0.333252 1.90026 1.90026 0.333252 3.83325 0.333252H20.1666C22.0996 0.333252 23.6666 1.90026 23.6666 3.83325V20.1666C23.6666 22.0996 22.0996 23.6666 20.1666 23.6666H3.83325ZM3.83325 2.66659C3.18892 2.66659 2.66659 3.18892 2.66659 3.83325V7.33325H21.3333V3.83325C21.3333 3.18892 20.8109 2.66659 20.1666 2.66659H3.83325ZM7.33325 9.66659H2.66659V20.1666C2.66659 20.8109 3.18892 21.3333 3.83325 21.3333H7.33325V9.66659ZM9.66659 21.3333V9.66659H21.3333V20.1666C21.3333 20.8109 20.8109 21.3333 20.1666 21.3333H9.66659Z" fill="#B6B6B6"/>
</svg>
