<svg width="30" height="30" viewBox="0 0 30 30" fill="none" xmlns="http://www.w3.org/2000/svg">
<path d="M4.66659 9.33341C5.95525 9.33341 6.99992 8.28875 6.99992 7.00008C6.99992 5.71142 5.95525 4.66675 4.66659 4.66675C3.37792 4.66675 2.33325 5.71142 2.33325 7.00008C2.33325 8.28875 3.37792 9.33341 4.66659 9.33341Z" fill="#0A1A3A"/>
<path d="M4.66659 16.3334C5.95525 16.3334 6.99992 15.2887 6.99992 14.0001C6.99992 12.7114 5.95525 11.6667 4.66659 11.6667C3.37792 11.6667 2.33325 12.7114 2.33325 14.0001C2.33325 15.2887 3.37792 16.3334 4.66659 16.3334Z" fill="#0A1A3A"/>
<path d="M6.99992 21.0001C6.99992 22.2887 5.95525 23.3334 4.66659 23.3334C3.37792 23.3334 2.33325 22.2887 2.33325 21.0001C2.33325 19.7114 3.37792 18.6667 4.66659 18.6667C5.95525 18.6667 6.99992 19.7114 6.99992 21.0001Z" fill="#0A1A3A"/>
<path d="M24.4999 8.75008C25.1443 8.75008 25.6666 8.22775 25.6666 7.58341V6.41675C25.6666 5.77242 25.1443 5.25008 24.4999 5.25008H10.4999C9.85559 5.25008 9.33325 5.77242 9.33325 6.41675V7.58341C9.33325 8.22775 9.85559 8.75008 10.4999 8.75008H24.4999Z" fill="#0A1A3A"/>
<path d="M25.6666 14.5834C25.6666 15.2277 25.1443 15.7501 24.4999 15.7501H10.4999C9.85559 15.7501 9.33325 15.2277 9.33325 14.5834V13.4167C9.33325 12.7724 9.85559 12.2501 10.4999 12.2501H24.4999C25.1443 12.2501 25.6666 12.7724 25.6666 13.4167V14.5834Z" fill="#0A1A3A"/>
<path d="M24.4999 22.7501C25.1443 22.7501 25.6666 22.2277 25.6666 21.5834V20.4167C25.6666 19.7724 25.1443 19.2501 24.4999 19.2501H10.4999C9.85559 19.2501 9.33325 19.7724 9.33325 20.4167V21.5834C9.33325 22.2277 9.85559 22.7501 10.4999 22.7501H24.4999Z" fill="#0A1A3A"/>
</svg>
