<svg width="30" height="30" viewBox="0 0 30 30" fill="none" xmlns="http://www.w3.org/2000/svg">
<path d="M4.08325 8.75C5.04975 8.75 5.83325 7.9665 5.83325 7C5.83325 6.0335 5.04975 5.25 4.08325 5.25C3.11675 5.25 2.33325 6.0335 2.33325 7C2.33325 7.9665 3.11675 8.75 4.08325 8.75Z" fill="#0A1A3A"/>
<path d="M9.33325 5.83333C8.68892 5.83333 8.16659 6.35567 8.16659 7C8.16659 7.64433 8.68892 8.16667 9.33325 8.16667H24.4999C25.1443 8.16667 25.6666 7.64433 25.6666 7C25.6666 6.35567 25.1443 5.83333 24.4999 5.83333H9.33325Z" fill="#0A1A3A"/>
<path d="M9.33325 12.8333C8.68892 12.8333 8.16659 13.3557 8.16659 14C8.16659 14.6443 8.68892 15.1667 9.33325 15.1667H24.4999C25.1443 15.1667 25.6666 14.6443 25.6666 14C25.6666 13.3557 25.1443 12.8333 24.4999 12.8333H9.33325Z" fill="#0A1A3A"/>
<path d="M8.16659 21C8.16659 20.3557 8.68892 19.8333 9.33325 19.8333H24.4999C25.1443 19.8333 25.6666 20.3557 25.6666 21C25.6666 21.6443 25.1443 22.1667 24.4999 22.1667H9.33325C8.68892 22.1667 8.16659 21.6443 8.16659 21Z" fill="#0A1A3A"/>
<path d="M5.83325 14C5.83325 14.9665 5.04975 15.75 4.08325 15.75C3.11675 15.75 2.33325 14.9665 2.33325 14C2.33325 13.0335 3.11675 12.25 4.08325 12.25C5.04975 12.25 5.83325 13.0335 5.83325 14Z" fill="#0A1A3A"/>
<path d="M4.08325 22.75C5.04975 22.75 5.83325 21.9665 5.83325 21C5.83325 20.0335 5.04975 19.25 4.08325 19.25C3.11675 19.25 2.33325 20.0335 2.33325 21C2.33325 21.9665 3.11675 22.75 4.08325 22.75Z" fill="#0A1A3A"/>
</svg>
