<svg width="20" height="18" viewBox="0 0 20 18" fill="none" xmlns="http://www.w3.org/2000/svg">
<path fill-rule="evenodd" clip-rule="evenodd" d="M13.1728 0.888049C13.0461 0.47451 12.7117 0.176392 12.3725 0.176392H7.40917C7.06995 0.176392 6.73559 0.47451 6.60884 0.888049L5.95997 2.82345H2.05865C1.08403 2.82345 0.293945 3.61354 0.293945 4.58816V16.0587C0.293945 17.0334 1.08403 17.8235 2.05865 17.8235H17.941C18.9156 17.8235 19.7057 17.0334 19.7057 16.0587V4.58816C19.7057 3.61354 18.9156 2.82345 17.941 2.82345H13.8213L13.1728 0.888049ZM13.5292 9.88227C13.5292 11.8315 11.9491 13.4117 9.99983 13.4117C8.05059 13.4117 6.47042 11.8315 6.47042 9.88227C6.47042 7.93303 8.05059 6.35286 9.99983 6.35286C11.9491 6.35286 13.5292 7.93303 13.5292 9.88227Z" fill="black"/>
</svg>
