<svg width="20" height="20" viewBox="0 0 20 20" fill="none" xmlns="http://www.w3.org/2000/svg">
<path fill-rule="evenodd" clip-rule="evenodd" d="M0 2.5C0 1.11929 1.11929 0 2.5 0H17.5C18.8807 0 20 1.11929 20 2.5V17.5C20 18.8807 18.8807 20 17.5 20H2.5C1.11929 20 0 18.8807 0 17.5V2.5ZM16.787 7.57537C17.1767 7.18401 17.1753 6.55084 16.784 6.16116L16.0753 5.45558C15.684 5.0659 15.0508 5.06726 14.6611 5.45863L8.88955 11.2551L5.56845 7.98027C5.1752 7.59249 4.54205 7.59692 4.15427 7.99018L3.45213 8.70222C3.06436 9.09547 3.06879 9.72862 3.46204 10.1164L8.20034 14.7888C8.59224 15.1752 9.22276 15.1723 9.6111 14.7823L16.787 7.57537Z" fill="#B6B6B6"/>
</svg>
