<svg width="28" height="28" viewBox="0 0 28 28" fill="none" xmlns="http://www.w3.org/2000/svg">
<path fill-rule="evenodd" clip-rule="evenodd" d="M0.25 14C0.25 6.40608 6.40608 0.25 14 0.25C21.5939 0.25 27.75 6.40608 27.75 14C27.75 21.5939 21.5939 27.75 14 27.75C6.40608 27.75 0.25 21.5939 0.25 14ZM22.0197 11.1301C22.5068 10.6409 22.5051 9.8494 22.0159 9.3623L21.1301 8.48032C20.6409 7.99322 19.8495 7.99493 19.3624 8.48413L12.1479 15.7298L7.99654 11.6362C7.50498 11.1515 6.71354 11.157 6.22882 11.6486L5.35115 12.5386C4.86643 13.0302 4.87197 13.8216 5.36354 14.3063L11.2864 20.1468C11.7763 20.6298 12.5644 20.6262 13.0499 20.1387L22.0197 11.1301Z" fill="#2545ED"/>
</svg>
