<svg width="14" height="14" viewBox="0 0 14 14" fill="none" xmlns="http://www.w3.org/2000/svg">
<path fill-rule="evenodd" clip-rule="evenodd" d="M2.3335 1.75004C2.01133 1.75004 1.75016 2.01121 1.75016 2.33337V8.75004C1.75016 9.07221 2.01133 9.33337 2.3335 9.33337H4.0835C4.40566 9.33337 4.66683 9.59454 4.66683 9.91671V11.5879L7.21005 9.46858C7.31489 9.38122 7.44703 9.33337 7.5835 9.33337H11.6668C11.989 9.33337 12.2502 9.07221 12.2502 8.75004V2.33337C12.2502 2.01121 11.989 1.75004 11.6668 1.75004H2.3335ZM0.583496 2.33337C0.583496 1.36688 1.367 0.583374 2.3335 0.583374H11.6668C12.6333 0.583374 13.4168 1.36688 13.4168 2.33337V8.75004C13.4168 9.71654 12.6333 10.5 11.6668 10.5H7.79469L4.45694 13.2815C4.28305 13.4264 4.04105 13.4576 3.83607 13.3616C3.6311 13.2656 3.50016 13.0597 3.50016 12.8334V10.5H2.3335C1.367 10.5 0.583496 9.71654 0.583496 8.75004V2.33337Z" fill="#B6B6B6"/>
</svg>
