<svg width="18" height="18" viewBox="0 0 18 18" fill="none" xmlns="http://www.w3.org/2000/svg">
<path d="M13.2227 0.893055C13.5834 0.743647 13.97 0.666748 14.3604 0.666748C14.7508 0.666748 15.1374 0.743647 15.4981 0.893055C15.8588 1.04246 16.1866 1.26145 16.4627 1.53752C16.7387 1.81359 16.9577 2.14133 17.1071 2.50204C17.2565 2.86274 17.3334 3.24934 17.3334 3.63976C17.3334 4.03018 17.2565 4.41677 17.1071 4.77748C16.9577 5.13818 16.7387 5.46592 16.4627 5.74199L16.0309 6.17379L11.8264 1.96932L12.2582 1.53752C12.5343 1.26145 12.862 1.04246 13.2227 0.893055Z" fill="#7C7C7C"/>
<path d="M10.6479 3.14783L2.04558 11.7501C1.94303 11.8527 1.86902 11.9802 1.83087 12.1201L0.696131 16.2808C0.617446 16.5693 0.699387 16.8779 0.910845 17.0893C1.1223 17.3008 1.43086 17.3827 1.71937 17.3041L5.88006 16.1693C6.01997 16.1312 6.1475 16.0571 6.25005 15.9546L14.8524 7.3523L10.6479 3.14783Z" fill="#7C7C7C"/>
</svg>
