<svg width="16" height="16" viewBox="0 0 16 16" fill="none" xmlns="http://www.w3.org/2000/svg">
<path fill-rule="evenodd" clip-rule="evenodd" d="M15.569 0.902507C15.8294 1.16286 15.8294 1.58497 15.569 1.84532L1.84515 15.5692C1.5848 15.8295 1.16269 15.8295 0.902343 15.5692L0.430939 15.0978C0.170589 14.8374 0.17059 14.4153 0.43094 14.155L2.58129 12.0046C1.82398 11.2589 1.25263 10.4546 0.8488 9.78674C0.578431 9.33963 0.3794 8.94748 0.247074 8.66491C0.180836 8.52347 0.131097 8.40902 0.0973073 8.32833C0.0804066 8.28796 0.0674779 8.256 0.0584537 8.23328L0.047831 8.20622L0.044696 8.19807L0.0436695 8.19538L0.0432911 8.19438C0.0432911 8.19438 0.0430026 8.19362 0.666673 7.95823L0.0494653 7.70634L0.0497342 7.70568L0.0504324 7.70398L0.0524706 7.69904L0.0591213 7.68313C0.0647008 7.66989 0.072578 7.65144 0.0827686 7.62812C0.103146 7.58148 0.132799 7.51531 0.171858 7.43241C0.249925 7.26669 0.365858 7.03346 0.520732 6.75516C0.82966 6.20004 1.29786 5.45775 1.93535 4.7125C3.20434 3.22901 5.20627 1.66683 8.00006 1.66683C9.49647 1.66683 10.7696 2.11666 11.823 2.76294L14.1548 0.431102C14.4151 0.170753 14.8373 0.170752 15.0976 0.431102L15.569 0.902507ZM5.80167 8.78423L8.78406 5.80183C8.53902 5.71443 8.27507 5.66683 8 5.66683C6.71134 5.66683 5.66667 6.7115 5.66667 8.00016C5.66667 8.27523 5.71426 8.53918 5.80167 8.78423Z" fill="#B6B6B6"/>
<path d="M0.0494653 7.70634C0.0494653 7.70634 0.0492493 7.70691 0.666673 7.95823L0.0430026 8.19362L-0.0493164 7.94902L0.0494653 7.70634Z" fill="#B6B6B6"/>
<path d="M14.2105 4.84692L14.6688 5.48124C15.0983 6.07559 15.4159 6.62546 15.6268 7.02815C15.7324 7.22984 15.8118 7.39557 15.8655 7.5127C15.8924 7.57129 15.9129 7.61781 15.9271 7.65067C15.9342 7.66711 15.9397 7.68014 15.9436 7.68957L15.9484 7.701L15.9499 7.70464L15.9507 7.70668L15.3333 7.95822L15.9569 8.19418L15.9559 8.19662L15.954 8.20169L15.9477 8.21794C15.9424 8.23145 15.9349 8.25025 15.9252 8.274C15.9059 8.32149 15.8777 8.38882 15.8404 8.47315C15.7658 8.64169 15.6547 8.87883 15.5052 9.16176C15.2068 9.72608 14.7512 10.4808 14.1214 11.2386C12.8657 12.7497 10.862 14.3335 8.00001 14.3335C7.41817 14.3335 6.86873 14.2677 6.35169 14.1487L5.17855 13.8788L14.2105 4.84692Z" fill="#B6B6B6"/>
<path d="M15.9569 8.19418C15.9569 8.19418 15.9571 8.19363 15.3333 7.95822C15.9508 7.70688 15.9507 7.70668 15.9507 7.70668L16.0494 7.94903L15.9569 8.19418Z" fill="#B6B6B6"/>
</svg>
