<svg width="24" height="25" viewBox="0 0 24 25" fill="none" xmlns="http://www.w3.org/2000/svg">
<path fill-rule="evenodd" clip-rule="evenodd" d="M12.7162 0.412504C12.2949 0.0848295 11.7049 0.0848295 11.2837 0.412504L0.783655 8.57917C0.49947 8.8002 0.333252 9.14006 0.333252 9.50008V22.3334C0.333252 23.6221 1.37792 24.6667 2.66659 24.6667H21.3333C22.6219 24.6667 23.6666 23.6221 23.6666 22.3334V9.50008C23.6666 9.14006 23.5004 8.8002 23.2162 8.57917L12.7162 0.412504ZM16.6666 22.3334H21.3333V10.0707L11.9999 2.81142L2.66659 10.0707V22.3334H7.33325V13.0001C7.33325 12.3557 7.85559 11.8334 8.49992 11.8334H15.4999C16.1442 11.8334 16.6666 12.3557 16.6666 13.0001V22.3334ZM9.66658 22.3334V14.1667H14.3333V22.3334H9.66658Z" fill="#B6B6B6"/>
</svg>
