<svg width="28" height="28" viewBox="0 0 28 28" fill="none" xmlns="http://www.w3.org/2000/svg">
<path fill-rule="evenodd" clip-rule="evenodd" d="M14.7162 1.4125C14.2949 1.08483 13.7049 1.08483 13.2837 1.4125L2.78365 9.57917C2.49947 9.8002 2.33325 10.1401 2.33325 10.5001V23.3334C2.33325 24.6221 3.37792 25.6667 4.66659 25.6667H23.3333C24.6219 25.6667 25.6666 24.6221 25.6666 23.3334V10.5001C25.6666 10.1401 25.5004 9.8002 25.2162 9.57917L14.7162 1.4125ZM18.6666 23.3334H23.3333V11.0707L13.9999 3.81142L4.66659 11.0707V23.3334H9.33325V14.0001C9.33325 13.3557 9.85559 12.8334 10.4999 12.8334H17.4999C18.1442 12.8334 18.6666 13.3557 18.6666 14.0001V23.3334ZM11.6666 23.3334V15.1667H16.3333V23.3334H11.6666Z" fill="#0A1A3A"/>
</svg>
