<svg width="34" height="34" viewBox="0 0 34 34" fill="none" xmlns="http://www.w3.org/2000/svg">
<path fill-rule="evenodd" clip-rule="evenodd" d="M0.333313 5.3335C0.333313 2.57207 2.57189 0.333496 5.33331 0.333496H28.6666C31.4281 0.333496 33.6666 2.57207 33.6666 5.3335V28.6668C33.6666 31.4283 31.4281 33.6668 28.6666 33.6668H5.33331C2.57189 33.6668 0.333313 31.4283 0.333313 28.6668V5.3335ZM9.49998 13.6668C11.8012 13.6668 13.6666 11.8013 13.6666 9.50016C13.6666 7.19898 11.8012 5.3335 9.49998 5.3335C7.19879 5.3335 5.33331 7.19898 5.33331 9.50016C5.33331 11.8013 7.19879 13.6668 9.49998 13.6668ZM14.2559 19.2561L17.8333 22.8335L27.2441 13.4228C27.769 12.8978 28.6666 13.2696 28.6666 14.012V28.6668H5.33331V27.0002L13.0774 19.2561C13.4028 18.9306 13.9305 18.9306 14.2559 19.2561Z" fill="#B6B6B6"/>
</svg>
