<svg width="24" height="22" viewBox="0 0 24 22" fill="none" xmlns="http://www.w3.org/2000/svg">
<mask id="mask0_725_2119" style="mask-type:luminance" maskUnits="userSpaceOnUse" x="-88" y="-87" width="204" height="143">
<path d="M-87.2769 -86.2314H115.552V55.8911H-87.2769V-86.2314Z" fill="white"/>
</mask>
<g mask="url(#mask0_725_2119)">
<path d="M11.9996 0.239217C5.50604 0.239217 0.240723 4.35907 0.240723 9.44418C0.240723 12.7105 2.42154 15.5784 5.69661 17.2152L4.58861 21.3138C4.54621 21.4396 4.58138 21.5729 4.67342 21.6636C4.73678 21.7269 4.82134 21.7617 4.91313 21.7617C4.98396 21.7617 5.05431 21.7338 5.11791 21.6848L9.88211 18.4952C10.574 18.593 11.2799 18.6489 11.9996 18.6489C18.4931 18.6489 23.7589 14.5293 23.7589 9.44418C23.7589 4.35907 18.4931 0.239217 11.9996 0.239217Z" fill="#191919"/>
</g>
</svg>
