<svg width="28" height="28" viewBox="0 0 18 22" fill="none" xmlns="http://www.w3.org/2000/svg">
<path fill-rule="evenodd" clip-rule="evenodd" d="M11.4528 0.108368C11.8686 0.319523 12.0833 0.790087 11.9702 1.24254L10.2808 8H17C17.388 8 17.741 8.22446 17.9056 8.57584C18.0702 8.92723 18.0166 9.3421 17.7682 9.64018L7.76823 21.6402C7.46967 21.9985 6.96309 22.1028 6.54725 21.8916C6.13142 21.6805 5.91676 21.2099 6.02987 20.7575L7.71924 14H1.00001C0.611995 14 0.259003 13.7755 0.0944228 13.4242C-0.070157 13.0728 -0.0166119 12.6579 0.231791 12.3598L10.2318 0.359816C10.5304 0.00153726 11.0369 -0.102788 11.4528 0.108368ZM3.13505 12H9.00001C9.30795 12 9.59871 12.1419 9.78822 12.3846C9.97773 12.6273 10.0448 12.9438 9.97015 13.2425L9.03043 17.0015L14.865 10H9.00001C8.69208 10 8.40131 9.85813 8.21181 9.61541C8.0223 9.3727 7.95518 9.05621 8.02987 8.75746L8.9696 4.99854L3.13505 12Z" fill="black"/>
</svg>
