<svg width="28" height="28" viewBox="0 0 18 22" fill="none" xmlns="http://www.w3.org/2000/svg">
<path d="M11.9702 1.24254C12.0833 0.790087 11.8686 0.319523 11.4528 0.108368C11.0369 -0.102788 10.5304 0.00153726 10.2318 0.359816L0.231791 12.3598C-0.0166119 12.6579 -0.070157 13.0728 0.0944228 13.4242C0.259003 13.7755 0.611994 14 1.00001 14H7.71924L6.02987 20.7575C5.91676 21.2099 6.13142 21.6805 6.54725 21.8916C6.96309 22.1028 7.46967 21.9985 7.76823 21.6402L17.7682 9.64018C18.0166 9.3421 18.0702 8.92723 17.9056 8.57584C17.741 8.22446 17.388 8 17 8H10.2808L11.9702 1.24254Z" fill="black"/>
</svg>
