<svg width="16" height="15" viewBox="0 0 16 15" fill="none" xmlns="http://www.w3.org/2000/svg">
<path fill-rule="evenodd" clip-rule="evenodd" d="M9.1665 0C8.76543 0 8.40828 0.235155 8.24366 0.592047L5.58473 6H2.65532C1.55164 6 0.666504 6.90074 0.666504 8V12.6667C0.666504 13.7659 1.55164 14.6667 2.65532 14.6667H12.4287C13.4148 14.6667 14.2463 13.9419 14.3946 12.97L15.3099 6.96995C15.4937 5.76517 14.5692 4.66667 13.3441 4.66667H11.2549L11.2549 2.41898C11.2549 2.18743 11.2549 1.9249 11.229 1.67812C11.2023 1.42351 11.1438 1.13259 10.9934 0.861633C10.648 0.239064 9.99462 0 9.1665 0ZM6.78126 6.5883L9.36175 1.33989C9.75642 1.36858 9.81438 1.48268 9.82624 1.50601L9.82754 1.50851C9.85491 1.55785 9.88524 1.64833 9.90296 1.81723C9.92084 1.98766 9.92154 2.18365 9.92154 2.43662V5.33333C9.92154 5.70152 10.22 6 10.5882 6H13.3441C13.7396 6 14.0544 6.3583 13.9918 6.76887L13.0765 12.7689C13.0263 13.0978 12.7478 13.3333 12.4287 13.3333H5.33317V7.33333H5.58473C6.09297 7.33333 6.55701 7.04439 6.78126 6.5883ZM3.99984 7.33333H2.65532C2.29859 7.33333 1.99984 7.6265 1.99984 8V12.6667C1.99984 13.0402 2.29859 13.3333 2.65532 13.3333H3.99984V7.33333Z" fill="#2545ED"/>
</svg>
