<svg width="14" height="13" viewBox="0 0 14 13" fill="none" xmlns="http://www.w3.org/2000/svg">
<path fill-rule="evenodd" clip-rule="evenodd" d="M8.021 0C7.67006 0 7.35755 0.205761 7.21351 0.518041L4.88694 5.25H2.32371C1.35799 5.25 0.583496 6.03814 0.583496 7V11.0833C0.583496 12.0452 1.35799 12.8333 2.32371 12.8333H10.8755C11.7383 12.8333 12.4658 12.1992 12.5955 11.3487L13.3965 6.09871C13.5573 5.04452 12.7483 4.08333 11.6764 4.08333H9.84832L9.84832 2.1166C9.84833 1.914 9.84835 1.68429 9.8257 1.46835C9.80232 1.24557 9.75111 0.991019 9.61957 0.753929C9.31732 0.209181 8.74559 0 8.021 0ZM5.93391 5.76476L8.19184 1.1724C8.53717 1.1975 8.58789 1.29734 8.59826 1.31776L8.5994 1.31995C8.62336 1.36312 8.64989 1.44229 8.6654 1.59007C8.68104 1.7392 8.68165 1.9107 8.68165 2.13204V4.66667C8.68165 4.98883 8.94282 5.25 9.26498 5.25H11.6764C12.0225 5.25 12.2979 5.56351 12.2431 5.92276L11.4422 11.1728C11.3983 11.4606 11.1546 11.6667 10.8755 11.6667H4.66683V6.41667H4.88694C5.33166 6.41667 5.73769 6.16384 5.93391 5.76476ZM3.50016 6.41667H2.32371C2.01157 6.41667 1.75016 6.67319 1.75016 7V11.0833C1.75016 11.4101 2.01157 11.6667 2.32371 11.6667H3.50016V6.41667Z" fill="#B6B6B6"/>
</svg>
