<svg width="16" height="18" viewBox="0 0 16 18" fill="none" xmlns="http://www.w3.org/2000/svg">
<path fill-rule="evenodd" clip-rule="evenodd" d="M3.5 7.5V5.25C3.5 4.05653 3.97411 2.91193 4.81802 2.06802C5.66193 1.22411 6.80653 0.75 8 0.75C9.19347 0.75 10.3381 1.22411 11.182 2.06802C12.0259 2.91193 12.5 4.05653 12.5 5.25V7.5H13.25C14.4926 7.5 15.5 8.50736 15.5 9.75V15C15.5 16.2426 14.4926 17.25 13.25 17.25H2.75C1.50736 17.25 0.5 16.2426 0.5 15V9.75C0.5 8.50736 1.50736 7.5 2.75 7.5H3.5ZM5.87868 3.12868C6.44129 2.56607 7.20435 2.25 8 2.25C8.79565 2.25 9.55871 2.56607 10.1213 3.12868C10.6839 3.69129 11 4.45435 11 5.25V7.5H5V5.25C5 4.45435 5.31607 3.69129 5.87868 3.12868ZM2.75 9C2.33579 9 2 9.33579 2 9.75V15C2 15.4142 2.33579 15.75 2.75 15.75H13.25C13.6642 15.75 14 15.4142 14 15V9.75C14 9.33579 13.6642 9 13.25 9H2.75Z" fill="#B6B6B6"/>
</svg>
