<svg width="28" height="28" viewBox="0 0 28 28" fill="none" xmlns="http://www.w3.org/2000/svg">
<path fill-rule="evenodd" clip-rule="evenodd" d="M26.8334 7V21C26.8334 22.9277 25.2611 24.5 23.3334 24.5H4.66675C2.73908 24.5 1.16675 22.9277 1.16675 21V7C1.16675 5.067 2.73375 3.5 4.66675 3.5H23.3334C25.2664 3.5 26.8334 5.067 26.8334 7ZM3.62442 6.47961C3.81737 6.09808 4.21413 5.83333 4.66675 5.83333H23.3334C23.786 5.83333 24.1828 6.09808 24.3757 6.47961L14.0001 13.7426L3.62442 6.47961ZM3.50008 9.24076L12.662 15.6541C13.4654 16.2165 14.5347 16.2165 15.3382 15.6541L24.5001 9.24076V21C24.5001 21.639 23.9724 22.1667 23.3334 22.1667H4.66675C4.02775 22.1667 3.50008 21.639 3.50008 21V9.24076Z" fill="#0A1A3A"/>
</svg>
