<svg width="26" height="25" viewBox="0 0 26 22" fill="none" xmlns="http://www.w3.org/2000/svg">
<path fill-rule="evenodd" clip-rule="evenodd" d="M25.8334 4V18C25.8334 19.9277 24.2611 21.5 22.3334 21.5H3.66675C1.73908 21.5 0.166748 19.9277 0.166748 18V4C0.166748 2.067 1.73375 0.5 3.66675 0.5H22.3334C24.2664 0.5 25.8334 2.067 25.8334 4ZM2.62442 3.47961C2.81737 3.09808 3.21413 2.83333 3.66675 2.83333H22.3334C22.786 2.83333 23.1828 3.09808 23.3757 3.47961L13.0001 10.7426L2.62442 3.47961ZM2.50008 6.24076L11.662 12.6541C12.4654 13.2165 13.5347 13.2165 14.3382 12.6541L23.5001 6.24076V18C23.5001 18.639 22.9724 19.1667 22.3334 19.1667H3.66675C3.02775 19.1667 2.50008 18.639 2.50008 18V6.24076Z" fill="#B6B6B6"/>
</svg>
