<svg width="20" height="20" viewBox="0 0 20 20" fill="none" xmlns="http://www.w3.org/2000/svg">
<path fill-rule="evenodd" clip-rule="evenodd" d="M8.88867 18.8889C8.88867 19.5025 9.38613 20 9.99978 20C10.6134 20 11.1109 19.5025 11.1109 18.8889V11.1111H18.8889C19.5025 11.1111 20 10.6137 20 10C20 9.38638 19.5025 8.88892 18.8889 8.88892H11.1109V1.11111C11.1109 0.497461 10.6134 0 9.99978 0C9.38613 0 8.88867 0.497461 8.88867 1.11111V8.88892H1.11111C0.497461 8.88892 0 9.38638 0 10C0 10.6137 0.497461 11.1111 1.11111 11.1111H8.88867V18.8889Z" fill="white"/>
</svg>
