<svg width="20" height="20" viewBox="0 0 20 20" fill="none" xmlns="http://www.w3.org/2000/svg">
<path fill-rule="evenodd" clip-rule="evenodd" d="M0.833496 9.99992C0.833496 4.93731 4.93755 0.833252 10.0002 0.833252C15.0628 0.833252 19.1668 4.93731 19.1668 9.99992C19.1668 15.0625 15.0628 19.1666 10.0002 19.1666C4.93755 19.1666 0.833496 15.0625 0.833496 9.99992ZM6.46463 5.87513C6.79007 5.54969 7.3177 5.54969 7.64314 5.87513L10.0002 8.23215L12.3572 5.87513C12.6826 5.54969 13.2103 5.54969 13.5357 5.87513L14.125 6.46438C14.4504 6.78982 14.4504 7.31746 14.125 7.6429L11.7679 9.99992L14.125 12.3569C14.4504 12.6824 14.4504 13.21 14.125 13.5355L13.5357 14.1247C13.2103 14.4501 12.6826 14.4501 12.3572 14.1247L10.0002 11.7677L7.64314 14.1247C7.3177 14.4501 6.79007 14.4501 6.46463 14.1247L5.87537 13.5355C5.54994 13.21 5.54994 12.6824 5.87537 12.3569L8.23239 9.99992L5.87537 7.6429C5.54994 7.31746 5.54994 6.78982 5.87537 6.46438L6.46463 5.87513Z" fill="#B6B6B6"/>
</svg>
