<svg width="20" height="20" viewBox="0 0 20 20" fill="none" xmlns="http://www.w3.org/2000/svg">
<path fill-rule="evenodd" clip-rule="evenodd" d="M5 0H3C2.20435 0 1.44129 0.31607 0.87868 0.87868C0.31607 1.44129 0 2.20435 0 3V17C0 17.7957 0.31607 18.5587 0.87868 19.1213C1.44129 19.6839 2.20435 20 3 20H17C17.7957 20 18.5587 19.6839 19.1213 19.1213C19.6839 18.5587 20 17.7957 20 17V6C20 5.73478 19.8946 5.48043 19.7071 5.29289L14.7071 0.292893C14.5196 0.105357 14.2652 0 14 0H7V5H14.5C14.7761 5 15 5.22386 15 5.5V6.5C15 6.77614 14.7761 7 14.5 7H6C5.44772 7 5 6.55229 5 6V0ZM4 11C3.44772 11 3 11.3838 3 11.8571V16.1429C3 16.6162 3.44772 17 4 17H16C16.5523 17 17 16.6162 17 16.1429V11.8571C17 11.3838 16.5523 11 16 11H4Z" fill="black"/>
</svg>
