<svg width="19" height="19" viewBox="0 0 19 19" fill="none" xmlns="http://www.w3.org/2000/svg">
<path fill-rule="evenodd" clip-rule="evenodd" d="M12 2C11.4477 2 11 1.55228 11 1C11 0.447715 11.4477 0 12 0H18C18.5523 0 19 0.447715 19 1V7C19 7.55228 18.5523 8 18 8C17.4477 8 17 7.55228 17 7V3.41421L9.70711 10.7071C9.31658 11.0976 8.68342 11.0976 8.29289 10.7071C7.90237 10.3166 7.90237 9.68342 8.29289 9.29289L15.5858 2H12ZM3 4C2.44772 4 2 4.44772 2 5V16C2 16.5523 2.44772 17 3 17H14C14.5523 17 15 16.5523 15 16V11.4375C15 10.8852 15.4477 10.4375 16 10.4375C16.5523 10.4375 17 10.8852 17 11.4375V16C17 17.6569 15.6569 19 14 19H3C1.34315 19 0 17.6569 0 16V5C0 3.34315 1.34315 2 3 2H7.5625C8.11478 2 8.5625 2.44772 8.5625 3C8.5625 3.55228 8.11478 4 7.5625 4H3Z" fill="black"/>
</svg>
