<svg width="28" height="28" viewBox="0 0 28 28" fill="none" xmlns="http://www.w3.org/2000/svg">
<path fill-rule="evenodd" clip-rule="evenodd" d="M5.83325 25.6666C3.90026 25.6666 2.33325 24.0996 2.33325 22.1666V5.83325C2.33325 3.90026 3.90026 2.33325 5.83325 2.33325H22.1666C24.0996 2.33325 25.6666 3.90026 25.6666 5.83325V22.1666C25.6666 24.0996 24.0996 25.6666 22.1666 25.6666H5.83325ZM5.83325 4.66659C5.18892 4.66659 4.66659 5.18892 4.66659 5.83325V9.33325H23.3333V5.83325C23.3333 5.18892 22.8109 4.66659 22.1666 4.66659H5.83325ZM9.33325 11.6666H4.66659V22.1666C4.66659 22.8109 5.18892 23.3333 5.83325 23.3333H9.33325V11.6666ZM11.6666 23.3333V11.6666H23.3333V22.1666C23.3333 22.8109 22.8109 23.3333 22.1666 23.3333H11.6666Z" fill="#0A1A3A"/>
</svg>
