<svg width="24" height="26" viewBox="0 0 24 26" fill="none" xmlns="http://www.w3.org/2000/svg">
<path fill-rule="evenodd" clip-rule="evenodd" d="M11.9999 0.166748C8.45609 0.166748 5.58325 3.03959 5.58325 6.58341C5.58325 10.1272 8.45609 13.0001 11.9999 13.0001C15.5437 13.0001 18.4166 10.1272 18.4166 6.58341C18.4166 3.03959 15.5437 0.166748 11.9999 0.166748ZM7.91659 6.58341C7.91659 4.32825 9.74476 2.50008 11.9999 2.50008C14.2551 2.50008 16.0833 4.32825 16.0833 6.58341C16.0833 8.83858 14.2551 10.6667 11.9999 10.6667C9.74476 10.6667 7.91659 8.83858 7.91659 6.58341Z" fill="#B6B6B6"/>
<path d="M7.33325 15.3334C3.46726 15.3334 0.333252 18.4674 0.333252 22.3334V24.6667C0.333252 25.3111 0.855586 25.8334 1.49992 25.8334C2.14425 25.8334 2.66659 25.3111 2.66659 24.6667V22.3334C2.66659 19.7561 4.75592 17.6667 7.33325 17.6667H16.6666C19.2439 17.6667 21.3333 19.7561 21.3333 22.3334V24.6667C21.3333 25.3111 21.8556 25.8334 22.4999 25.8334C23.1443 25.8334 23.6666 25.3111 23.6666 24.6667V22.3334C23.6666 18.4674 20.5326 15.3334 16.6666 15.3334H7.33325Z" fill="#B6B6B6"/>
</svg>
