<svg width="28" height="28" viewBox="0 0 28 28" fill="none" xmlns="http://www.w3.org/2000/svg">
<path fill-rule="evenodd" clip-rule="evenodd" d="M13.9999 1.16675C10.4561 1.16675 7.58325 4.03959 7.58325 7.58341C7.58325 11.1272 10.4561 14.0001 13.9999 14.0001C17.5437 14.0001 20.4166 11.1272 20.4166 7.58341C20.4166 4.03959 17.5437 1.16675 13.9999 1.16675ZM9.91659 7.58341C9.91659 5.32825 11.7448 3.50008 13.9999 3.50008C16.2551 3.50008 18.0833 5.32825 18.0833 7.58341C18.0833 9.83858 16.2551 11.6667 13.9999 11.6667C11.7448 11.6667 9.91659 9.83858 9.91659 7.58341Z" fill="#0A1A3A"/>
<path d="M9.33325 16.3334C5.46726 16.3334 2.33325 19.4674 2.33325 23.3334V25.6667C2.33325 26.3111 2.85559 26.8334 3.49992 26.8334C4.14425 26.8334 4.66659 26.3111 4.66659 25.6667V23.3334C4.66659 20.7561 6.75592 18.6667 9.33325 18.6667H18.6666C21.2439 18.6667 23.3333 20.7561 23.3333 23.3334V25.6667C23.3333 26.3111 23.8556 26.8334 24.4999 26.8334C25.1443 26.8334 25.6666 26.3111 25.6666 25.6667V23.3334C25.6666 19.4674 22.5326 16.3334 18.6666 16.3334H9.33325Z" fill="#0A1A3A"/>
</svg>
