<svg width="20" height="16" viewBox="0 0 20 16" fill="none" xmlns="http://www.w3.org/2000/svg">
<path fill-rule="evenodd" clip-rule="evenodd" d="M10.2536 4.62488C8.33919 4.62488 6.78725 6.13592 6.78725 7.99988C6.78725 9.86384 8.33919 11.3749 10.2536 11.3749C12.168 11.3749 13.72 9.86384 13.72 7.99988C13.72 6.13592 12.168 4.62488 10.2536 4.62488ZM8.32786 7.99988C8.32786 6.96434 9.19005 6.12488 10.2536 6.12488C11.3172 6.12488 12.1794 6.96434 12.1794 7.99988C12.1794 9.03541 11.3172 9.87488 10.2536 9.87488C9.19005 9.87488 8.32786 9.03541 8.32786 7.99988Z" fill="#B6B6B6"/>
<path fill-rule="evenodd" clip-rule="evenodd" d="M10.2536 0.874878C7.02549 0.874878 4.71235 2.63233 3.24608 4.30125C2.50948 5.13967 1.9685 5.97474 1.61155 6.59925C1.4326 6.91234 1.29864 7.17472 1.20844 7.36115C1.16331 7.45442 1.12904 7.52886 1.1055 7.58133C1.09372 7.60756 1.08462 7.62832 1.07818 7.64322L1.07049 7.66111L1.06814 7.66667L1.06733 7.66859L1.06702 7.66933L0.952881 7.94234L1.05979 8.21813L1.06009 8.2189L1.06086 8.22087L1.0631 8.22658L1.0704 8.24486C1.07652 8.26006 1.08516 8.28121 1.09634 8.30793C1.11871 8.36136 1.15131 8.4371 1.1944 8.53197C1.28052 8.72158 1.4089 8.98836 1.58171 9.30666C1.92641 9.94152 2.45288 10.7906 3.18054 11.6431C4.63152 13.3431 6.94664 15.1249 10.2536 15.1249C13.5605 15.1249 15.8757 13.3431 17.3266 11.6431C18.0543 10.7906 18.5808 9.94152 18.9255 9.30666C19.0983 8.98836 19.2267 8.72158 19.3128 8.53197C19.3559 8.4371 19.3885 8.36136 19.4108 8.30793C19.422 8.28121 19.4307 8.26006 19.4368 8.24486L19.4441 8.22658L19.4463 8.22087L19.4471 8.2189L19.4474 8.21813L19.5543 7.94234L19.4402 7.66933L19.439 7.66667L19.4367 7.66111L19.429 7.64322C19.4226 7.62832 19.4135 7.60756 19.4017 7.58133C19.3781 7.52886 19.3439 7.45442 19.2987 7.36115C19.2085 7.17472 19.0746 6.91234 18.8956 6.59925C18.5387 5.97474 17.9977 5.13967 17.2611 4.30125C15.7948 2.63233 13.4817 0.874878 10.2536 0.874878ZM18.7269 7.95268C19.4476 8.21751 19.4474 8.21813 19.4474 8.21813L18.7269 7.95268ZM19.4402 7.66933C19.4402 7.66933 19.4404 7.66992 18.7269 7.95268L19.4402 7.66933ZM1.78023 7.95268C1.06677 7.66992 1.06702 7.66933 1.06702 7.66933L1.78023 7.95268ZM1.05979 8.21813C1.05979 8.21813 1.05955 8.21751 1.78023 7.95268L1.05979 8.21813ZM2.94373 8.60564C2.80116 8.34304 2.69387 8.12226 2.62049 7.96271C2.69762 7.80519 2.80981 7.58749 2.95774 7.32866C3.27893 6.76672 3.76355 6.01984 4.4168 5.2763C5.73024 3.78133 7.65377 2.37488 10.2536 2.37488C12.8534 2.37488 14.7769 3.78133 16.0904 5.2763C16.7436 6.01984 17.2282 6.76672 17.5494 7.32866C17.6974 7.58749 17.8096 7.80519 17.8867 7.96271C17.8133 8.12226 17.706 8.34304 17.5634 8.60564C17.2544 9.17494 16.7845 9.93143 16.1418 10.6844C14.852 12.1955 12.9305 13.6249 10.2536 13.6249C7.57672 13.6249 5.65517 12.1955 4.36542 10.6844C3.72273 9.93143 3.25282 9.17494 2.94373 8.60564Z" fill="#B6B6B6"/>
</svg>
