<svg width="12" height="11" viewBox="0 0 12 11" fill="none" xmlns="http://www.w3.org/2000/svg">
<path d="M6 3.25C6.27614 3.25 6.5 3.47386 6.5 3.75L6.5 6.75C6.5 7.02614 6.27614 7.25 6 7.25C5.72386 7.25 5.5 7.02614 5.5 6.75L5.5 3.75C5.5 3.47386 5.72386 3.25 6 3.25Z" fill="#FF5353"/>
<path d="M6 9.25C6.41421 9.25 6.75 8.91421 6.75 8.5C6.75 8.08579 6.41421 7.75 6 7.75C5.58579 7.75 5.25 8.08579 5.25 8.5C5.25 8.91421 5.58579 9.25 6 9.25Z" fill="#FF5353"/>
<path fill-rule="evenodd" clip-rule="evenodd" d="M4.91332 1.11451C5.39689 0.295163 6.60316 0.295163 7.08673 1.11451L11.8299 9.15122C12.3289 9.99663 11.6819 11 10.7432 11H1.25681C0.31817 11 -0.328848 9.99663 0.170108 9.15122L4.91332 1.11451ZM6.22553 1.62278C6.12891 1.45907 5.87114 1.45907 5.77452 1.62278L1.0313 9.65949C0.954518 9.7896 1.03501 10 1.25681 10H10.7432C10.965 10 11.0455 9.7896 10.9687 9.65949L6.22553 1.62278Z" fill="#FF5353"/>
</svg>
