<svg width="84" height="70" viewBox="0 0 84 70" fill="none" xmlns="http://www.w3.org/2000/svg">
<path fill-rule="evenodd" clip-rule="evenodd" d="M76.4965 29.0196L67.053 34.6938C66.6713 34.9231 66.8339 35.5093 67.2791 35.5093H75.5373C79.9995 35.5093 83.6168 39.1266 83.6168 43.5887C83.6168 48.0509 79.9995 51.6682 75.5374 51.6682H64.4132C64.2016 51.6682 64.0205 51.8192 63.9785 52.0266C63.7138 53.3316 63.3261 54.6309 62.8092 55.9101C58.2669 67.1526 45.4708 72.5843 34.2283 68.042C34.1303 68.0024 34.0327 67.9622 33.9356 67.9213C33.8665 67.8952 33.7975 67.8682 33.7287 67.8404L6.04399 56.6551C1.09729 54.6565 -1.29262 49.0262 0.70598 44.0795C2.70458 39.1328 8.33486 36.7429 13.2816 38.7415L20.0744 41.486C20.1396 41.5123 20.2107 41.4636 20.2107 41.3932V8.37285C20.2107 3.91069 23.828 0.293395 28.2901 0.293395C32.7523 0.293395 36.3696 3.91069 36.3696 8.37286V18.83C36.3696 19.2792 36.9643 19.4386 37.189 19.0495L45.8541 4.04108C48.0852 0.176733 53.0265 -1.14729 56.8908 1.08379C60.7552 3.31487 62.0792 8.25619 59.8481 12.1205L53.5799 22.9774C53.3532 23.37 53.7978 23.8068 54.1863 23.5733L68.174 15.1687C71.9988 12.8705 76.9625 14.1081 79.2607 17.9329C81.5589 21.7577 80.3213 26.7214 76.4965 29.0196Z" fill="#0029FF"/>
<path fill-rule="evenodd" clip-rule="evenodd" d="M35.9185 41.4511C37.034 41.4511 37.9384 40.0357 37.9384 38.2896C37.9384 36.5436 37.034 35.1281 35.9185 35.1281C34.8029 35.1281 33.8986 36.5436 33.8986 38.2896C33.8986 40.0357 34.8029 41.4511 35.9185 41.4511ZM45.7544 41.4511C46.8699 41.4511 47.7742 40.0357 47.7742 38.2896C47.7742 36.5436 46.8699 35.1281 45.7544 35.1281C44.6388 35.1281 43.7345 36.5436 43.7345 38.2896C43.7345 40.0357 44.6388 41.4511 45.7544 41.4511ZM49.2221 44.5115C49.0685 44.6229 48.9338 44.7657 48.8282 44.9373C45.2168 50.8058 36.7948 51.105 32.7761 45.5076L32.3034 44.8491C31.8225 44.1793 30.8897 44.0262 30.2199 44.507C29.5501 44.9879 29.397 45.9207 29.8779 46.5905L30.3506 47.2489C35.1164 53.887 44.6111 54.1923 49.8735 48.4833C51.1336 50.1684 53.159 51.1929 55.352 51.1299C56.1762 51.1062 56.8251 50.4188 56.8014 49.5946C56.7778 48.7705 56.0904 48.1215 55.2662 48.1452C53.6453 48.1918 52.1916 47.1538 51.7095 45.6056L51.591 45.2251C51.3458 44.4379 50.5089 43.9985 49.7217 44.2436C49.5338 44.3021 49.3658 44.3943 49.2221 44.5115Z" fill="white"/>
</svg>
