<svg width="1024" height="1024" viewBox="0 0 1024 1024" fill="none" xmlns="http://www.w3.org/2000/svg">
<rect width="1024" height="1024" fill="url(#paint0_linear_512_2490)"/>
<g filter="url(#filter0_d_512_2490)">
<path fill-rule="evenodd" clip-rule="evenodd" d="M820.467 460.141L736.463 510.616C733.068 512.656 734.514 517.87 738.475 517.87H811.935C851.628 517.87 883.805 550.047 883.805 589.74C883.805 629.433 851.628 661.61 811.935 661.61H712.982C711.099 661.61 709.489 662.954 709.114 664.798C706.76 676.407 703.311 687.965 698.713 699.344C658.308 799.351 544.482 847.667 444.475 807.262C443.605 806.91 442.738 806.553 441.876 806.19C441.259 805.957 440.644 805.717 440.03 805.469L193.764 705.971C149.761 688.192 128.502 638.109 146.28 594.106C164.058 550.103 214.142 528.843 258.145 546.622L318.57 571.035C319.15 571.27 319.782 570.836 319.782 570.21V276.48C319.782 236.787 351.959 204.61 391.652 204.61C431.345 204.61 463.522 236.787 463.522 276.48V369.5C463.522 373.496 468.813 374.914 470.811 371.453L547.891 237.947C567.737 203.572 611.692 191.794 646.067 211.641C680.442 231.487 692.22 275.442 672.373 309.817L616.615 406.393C614.599 409.885 618.553 413.771 622.01 411.694L746.435 336.932C780.458 316.489 824.612 327.497 845.056 361.521C865.499 395.544 854.49 439.698 820.467 460.141Z" fill="white"/>
</g>
<path fill-rule="evenodd" clip-rule="evenodd" d="M459.51 570.725C469.433 570.725 477.477 558.134 477.477 542.602C477.477 527.07 469.433 514.479 459.51 514.479C449.586 514.479 441.542 527.07 441.542 542.602C441.542 558.134 449.586 570.725 459.51 570.725ZM547.004 570.725C556.927 570.725 564.971 558.134 564.971 542.602C564.971 527.07 556.927 514.479 547.004 514.479C537.08 514.479 529.036 527.07 529.036 542.602C529.036 558.134 537.08 570.725 547.004 570.725ZM577.853 597.946C576.486 598.937 575.287 600.208 574.346 601.736C542.222 653.939 467.305 656.6 431.557 606.808L427.352 600.951C423.074 594.993 414.777 593.631 408.819 597.908C402.86 602.186 401.498 610.483 405.776 616.441L409.981 622.299C452.374 681.347 536.834 684.063 583.645 633.278C594.854 648.269 612.871 657.382 632.379 656.821C639.71 656.61 645.483 650.496 645.272 643.165C645.061 635.833 638.947 630.061 631.616 630.271C617.197 630.686 604.266 621.452 599.977 607.68L598.923 604.296C596.742 597.293 589.298 593.384 582.295 595.565C580.625 596.085 579.131 596.904 577.853 597.946Z" fill="#2545ED"/>
<defs>
<filter id="filter0_d_512_2490" x="140" y="202" width="762.805" height="679.534" filterUnits="userSpaceOnUse" color-interpolation-filters="sRGB">
<feFlood flood-opacity="0" result="BackgroundImageFix"/>
<feColorMatrix in="SourceAlpha" type="matrix" values="0 0 0 0 0 0 0 0 0 0 0 0 0 0 0 0 0 0 127 0" result="hardAlpha"/>
<feOffset dx="15" dy="56"/>
<feGaussianBlur stdDeviation="2"/>
<feComposite in2="hardAlpha" operator="out"/>
<feColorMatrix type="matrix" values="0 0 0 0 0 0 0 0 0 0 0 0 0 0 0 0 0 0 0.3 0"/>
<feBlend mode="normal" in2="BackgroundImageFix" result="effect1_dropShadow_512_2490"/>
<feBlend mode="normal" in="SourceGraphic" in2="effect1_dropShadow_512_2490" result="shape"/>
</filter>
<linearGradient id="paint0_linear_512_2490" x1="512" y1="0" x2="512" y2="1024" gradientUnits="userSpaceOnUse">
<stop stop-color="#98A8FF"/>
<stop offset="0.0001" stop-color="#0029FF" stop-opacity="0.68"/>
<stop offset="1" stop-color="#0023DC"/>
</linearGradient>
</defs>
</svg>
