<svg width="103" height="54" viewBox="0 0 103 54" fill="none" xmlns="http://www.w3.org/2000/svg">
<path d="M90.2552 37.2033V40.9915H88.9924V37.2033H87.9487V36.1338H91.2989V37.2033H90.2552Z" fill="#2545ED"/>
<path d="M91.4677 40.9915L92.2924 36.1338H93.5358L94.5215 38.7302L95.5652 36.1338H96.8216L97.556 40.9915H96.2933L95.9389 38.1954H95.926L94.7599 40.9915H94.2574L93.1428 38.1954H93.1299L92.724 40.9915H91.4677Z" fill="#2545ED"/>
<path d="M13.9805 10.727L12.0155 14.4637C11.7578 14.3349 11.4679 14.2168 11.1458 14.1094C10.8451 14.002 10.5337 13.9161 10.2116 13.8517C9.97536 13.8087 9.73913 13.7765 9.5029 13.755C9.28814 13.7121 9.07339 13.6906 8.85863 13.6906C8.75126 13.6906 8.63314 13.7014 8.50429 13.7228C8.39691 13.7228 8.28953 13.7443 8.18216 13.7873C7.8815 13.8517 7.61306 13.9698 7.37683 14.1416C7.1406 14.2919 7.02248 14.5174 7.02248 14.8181C7.02248 15.1832 7.17281 15.4623 7.47347 15.6556C7.7956 15.8274 8.14994 15.9563 8.5365 16.0422C8.75126 16.1066 8.95527 16.1603 9.14855 16.2032C9.34183 16.2247 9.51364 16.2462 9.66397 16.2677C11.0384 16.5469 12.1766 17.0515 13.0786 17.7817C14.002 18.5119 14.4637 19.6393 14.4637 21.1641C14.4637 23.2687 13.6906 24.8042 12.1444 25.7706C10.5981 26.7155 8.89085 27.2202 7.02248 27.2846C6.95806 27.2846 6.89363 27.2846 6.8292 27.2846C6.78625 27.2846 6.73256 27.2846 6.66814 27.2846C5.48698 27.2846 4.32731 27.1235 3.18911 26.8014C2.07238 26.4793 1.00935 26.0175 0 25.4162L2.12607 21.2929C2.49116 21.5721 2.90993 21.8298 3.38239 22.0661C3.85485 22.2808 4.33805 22.4741 4.83198 22.6459C5.17559 22.7533 5.50846 22.8392 5.83059 22.9036C6.15273 22.968 6.46412 23.0002 6.76478 23.0002C6.85068 23.0002 6.93658 23.0002 7.02248 23.0002C7.12986 22.9788 7.23724 22.9573 7.34461 22.9358C7.66675 22.8714 7.95667 22.7425 8.21437 22.5492C8.47208 22.356 8.60093 22.0875 8.60093 21.7439C8.60093 21.2715 8.37544 20.9386 7.92445 20.7453C7.47347 20.5306 6.93658 20.3588 6.31379 20.2299C6.07756 20.1869 5.84133 20.144 5.6051 20.101C5.39035 20.0366 5.16485 19.9722 4.92862 19.9078C4.00518 19.6715 3.1569 19.2635 2.38378 18.6837C1.63214 18.0824 1.25632 17.0408 1.25632 15.559C1.25632 13.5618 1.99722 12.0907 3.47903 11.1458C4.96084 10.2009 6.58223 9.71765 8.34322 9.69618C8.38618 9.69618 8.41839 9.69618 8.43986 9.69618C8.48281 9.69618 8.51503 9.69618 8.5365 9.69618C9.48142 9.69618 10.4049 9.78208 11.3068 9.95388C12.2303 10.1042 13.1215 10.3727 13.9805 10.7592V10.727Z" fill="#2545ED"/>
<path d="M29.5297 10.6304V15.5912C29.1002 15.2905 28.6277 15.0328 28.1123 14.8181C27.5969 14.5818 27.06 14.4637 26.5017 14.4637C25.3849 14.4637 24.4293 14.8503 23.6347 15.6234C22.8616 16.3965 22.475 17.3522 22.475 18.4904C22.475 19.6715 22.8616 20.6487 23.6347 21.4218C24.4078 22.1734 25.3957 22.5492 26.5983 22.5492C26.7057 22.5492 26.8131 22.5492 26.9204 22.5492C27.0493 22.5278 27.1674 22.5063 27.2748 22.4848C27.6828 22.4204 28.0801 22.3023 28.4667 22.1305C28.8747 21.9372 29.229 21.701 29.5297 21.4218V26.3504C28.8854 26.6725 28.209 26.9088 27.5003 27.0591C26.8131 27.2094 26.1151 27.2846 25.4064 27.2846C22.9582 27.2846 20.8429 26.4793 19.0604 24.8686C17.2994 23.2365 16.4189 21.1748 16.4189 18.6837C16.4189 16.0207 17.3102 13.8624 19.0926 12.2088C20.8751 10.5337 23.0656 9.69618 25.6641 9.69618C26.3513 9.69618 27.0171 9.78208 27.6613 9.95388C28.3271 10.1042 28.9499 10.3404 29.5297 10.6626V10.6304Z" fill="#2545ED"/>
<path d="M33.1826 0H39.0454V12.3054H39.1099C39.7971 11.425 40.5595 10.77 41.397 10.3404C42.256 9.91093 43.2546 9.69618 44.3928 9.69618C46.4974 9.69618 48.0544 10.3297 49.0637 11.5968C50.0946 12.8638 50.61 14.5496 50.61 16.6542V26.737H44.7472V18.2649C44.7472 18.2649 44.7472 18.2542 44.7472 18.2327C44.7472 18.1897 44.7472 18.1468 44.7472 18.1038C44.7472 17.1804 44.5861 16.3321 44.264 15.559C43.9633 14.7644 43.2439 14.3671 42.1057 14.3671C40.989 14.3671 40.2051 14.7644 39.7541 15.559C39.3031 16.3321 39.0669 17.1804 39.0454 18.1038C39.0454 18.1468 39.0454 18.1897 39.0454 18.2327C39.0454 18.2542 39.0454 18.2756 39.0454 18.2971V26.737H33.1826V0Z" fill="#2545ED"/>
<path d="M63.2096 9.66397C65.8726 9.68544 68.1919 10.4693 70.1677 12.0155C72.1649 13.5403 73.1635 15.7093 73.1635 18.5226C73.1635 21.3144 72.1649 23.4727 70.1677 24.9975C68.1919 26.5222 65.8726 27.2846 63.2096 27.2846C60.5681 27.2846 58.2488 26.533 56.2516 25.0297C54.2544 23.5049 53.2557 21.3359 53.2557 18.5226C53.2557 15.7093 54.2436 13.5403 56.2194 12.0155C58.2166 10.4693 60.5467 9.69618 63.2096 9.69618V9.66397ZM63.2096 14.7537C62.0285 14.7751 61.105 15.1617 60.4393 15.9133C59.7736 16.6435 59.4407 17.5133 59.4407 18.5226C59.4407 19.5749 59.7736 20.4554 60.4393 21.1641C61.105 21.8728 62.0285 22.2271 63.2096 22.2271C64.4123 22.2271 65.3357 21.8728 65.98 21.1641C66.6457 20.4554 66.9786 19.5749 66.9786 18.5226C66.9786 17.5133 66.6457 16.6435 65.98 15.9133C65.3357 15.1617 64.4123 14.7859 63.2096 14.7859V14.7537Z" fill="#2545ED"/>
<path d="M84.5383 9.66397C87.2013 9.68544 89.5206 10.4693 91.4964 12.0155C93.4936 13.5403 94.4922 15.7093 94.4922 18.5226C94.4922 21.3144 93.4936 23.4727 91.4964 24.9975C89.5206 26.5222 87.2013 27.2846 84.5383 27.2846C81.8968 27.2846 79.5775 26.533 77.5802 25.0297C75.583 23.5049 74.5844 21.3359 74.5844 18.5226C74.5844 15.7093 75.5723 13.5403 77.548 12.0155C79.5453 10.4693 81.8753 9.69618 84.5383 9.69618V9.66397ZM84.5383 14.7537C83.3572 14.7751 82.4337 15.1617 81.768 15.9133C81.1022 16.6435 80.7694 17.5133 80.7694 18.5226C80.7694 19.5749 81.1022 20.4554 81.768 21.1641C82.4337 21.8728 83.3572 22.2271 84.5383 22.2271C85.7409 22.2271 86.6644 21.8728 87.3086 21.1641C87.9744 20.4554 88.3073 19.5749 88.3073 18.5226C88.3073 17.5133 87.9744 16.6435 87.3086 15.9133C86.6644 15.1617 85.7409 14.7859 84.5383 14.7859V14.7537Z" fill="#2545ED"/>
<path d="M103 0V26.737H97.1372V0H103Z" fill="#2545ED"/>
<path d="M6.95806 36.6264V38.6881H7.02248C7.7097 37.7861 8.48281 37.1311 9.34183 36.7231C10.2223 36.315 11.1887 36.111 12.241 36.111C13.4436 36.111 14.5282 36.3687 15.4946 36.8841C16.4824 37.3781 17.277 38.1727 17.8783 39.2679C18.4367 38.2371 19.2313 37.4532 20.2621 36.9163C21.2929 36.3795 22.3667 36.111 23.4834 36.111C25.588 36.111 27.0484 36.7231 27.8644 37.9472C28.702 39.1713 29.1208 40.739 29.1208 42.6503V53.1518H23.2579V45.2596C23.2579 45.2596 23.2579 45.2488 23.2579 45.2274C23.2579 45.2059 23.2579 45.1844 23.2579 45.1629C23.2579 44.9482 23.2579 44.7119 23.2579 44.4542C23.2579 44.1965 23.2472 43.9388 23.2257 43.6811C23.1613 42.951 22.968 42.2852 22.6459 41.6839C22.3452 41.0826 21.7439 40.7819 20.842 40.7819C19.7467 40.7819 19.0165 41.1363 18.6515 41.845C18.3078 42.5537 18.1146 43.3268 18.0716 44.1643C18.0501 44.3576 18.0394 44.5509 18.0394 44.7442C18.0394 44.9374 18.0394 45.12 18.0394 45.2918V53.1518H12.1766V45.2596C12.1766 45.0448 12.1766 44.8086 12.1766 44.5509C12.1766 44.2932 12.1659 44.0247 12.1444 43.7455C12.08 42.9724 11.8759 42.2637 11.5323 41.6195C11.1887 40.9752 10.5337 40.6531 9.56733 40.6531C8.60093 40.6531 7.94593 40.9752 7.60232 41.6195C7.25871 42.2637 7.05469 42.9724 6.99027 43.7455C6.96879 44.0247 6.95806 44.2932 6.95806 44.5509C6.95806 44.8086 6.95806 45.0555 6.95806 45.2918V53.1518H1.09525V36.6264H6.95806Z" fill="#2545ED"/>
<path d="M51.034 36.6264V53.1518H45.1712V51.3157H45.1068C44.6343 52.0888 43.9901 52.6686 43.174 53.0552C42.3579 53.4202 41.5097 53.6243 40.6292 53.6672C40.5433 53.6887 40.4574 53.6994 40.3715 53.6994C40.2856 53.6994 40.1997 53.6994 40.1138 53.6994C37.6656 53.6994 35.6576 52.8297 34.0899 51.0902C32.5437 49.3292 31.7705 47.2675 31.7705 44.9052C31.7705 42.5429 32.5329 40.492 34.0577 38.7525C35.6039 36.9915 37.6011 36.111 40.0493 36.111C40.1567 36.111 40.2641 36.111 40.3715 36.111C40.4788 36.111 40.5862 36.1217 40.6936 36.1432C41.5311 36.2077 42.3472 36.4224 43.1418 36.7875C43.9579 37.1311 44.6343 37.625 45.1712 38.2693V36.6264H51.034ZM41.5956 41.1685C40.4144 41.19 39.491 41.5765 38.8252 42.3282C38.1595 43.0583 37.8266 43.9281 37.8266 44.9374C37.8266 45.9897 38.1595 46.8702 38.8252 47.5789C39.491 48.2876 40.4144 48.642 41.5956 48.642C42.7982 48.642 43.7216 48.2876 44.3659 47.5789C45.0316 46.8702 45.3645 45.9897 45.3645 44.9374C45.3645 43.9281 45.0316 43.0583 44.3659 42.3282C43.7216 41.5765 42.7982 41.2007 41.5956 41.2007V41.1685Z" fill="#2545ED"/>
<path d="M61.3307 41.4584V53.1518H55.4679V41.4584H53.5673V36.6264H55.4679V31.6656H61.3307V36.6264H64.6487V41.4584H61.3307Z" fill="#2545ED"/>
<path d="M83.5047 45.2596V45.8716H71.1671C71.1671 47.0742 71.4784 47.9977 72.1012 48.642C72.724 49.2647 73.6367 49.5761 74.8394 49.5761C75.4621 49.5761 75.999 49.458 76.45 49.2218C76.9225 48.9856 77.3198 48.599 77.6419 48.0621L83.2792 48.0299C82.8068 50.0056 81.7545 51.4445 80.1223 52.3465C78.5117 53.2484 76.7614 53.6994 74.8716 53.6994C72.1442 53.6994 69.8678 52.9585 68.0424 51.4767C66.217 49.9734 65.3042 47.7937 65.3042 44.9374C65.3042 42.1886 66.1525 40.0303 67.8491 38.4626C69.5671 36.8949 71.7684 36.111 74.4528 36.111C77.3305 36.111 79.5532 36.9378 81.1209 38.5914C82.7101 40.245 83.5047 42.4785 83.5047 45.2918V45.2596ZM71.2637 42.4892H78.0607C77.9103 41.7161 77.5131 41.0933 76.8688 40.6209C76.246 40.1484 75.5373 39.9122 74.7427 39.9122C73.8837 39.9122 73.1321 40.1377 72.4878 40.5886C71.8435 41.0182 71.4355 41.6624 71.2637 42.5214V42.4892Z" fill="#2545ED"/>
</svg>
